<svg xmlns="http://www.w3.org/2000/svg" xmlns:xlink="http://www.w3.org/1999/xlink" width="100%" height="100%" viewBox="0 0 334 120" fill-rule="evenodd" stroke-linecap="round" stroke-linejoin="round" stroke-miterlimit="1.5"><path d="M17.852 63.675l-9 10c-1.136 1.136-3.647 2.897-5-1l-3-9c-.345-1.037-2.92-5.054 3-4s7.65.927 11 1 5.505.496 3 3z" fill="#6c5a2c"/><path d="M145.812 99.05s-9.647 19.7-55 9.14-65.436-38.624-79-39.14" fill="none" stroke="#6c5a2c" stroke-width="3"/><path d="M257.05 10.34c-31.96-22.36-73.55-4.96-99.058 19.005-12.487 11.732-22.2 27.305-21.658 44.978.535 17.443 11.633 30.036 27.23 36.613 17.943 7.565 38.394 8.822 57.625 8.034 19.312-.792 38.914-3.276 57.384-9.133 16.862-5.346 34.56-13.895 45.938-27.884 10.595-13.028 12.102-29.692 1.903-43.474-12.127-16.39-33.723-21.175-52.85-23.43-23.568-2.78-47.563-.77-70.304 6.002-.944.28-.55 1.74.408 1.48 18.52-5.064 37.742-7.416 56.936-6.56 17.798.794 37.81 3.3 53.05 13.274 14.74 9.638 22.826 27.753 14.137 44.195-7.977 15.098-24.534 24.73-39.853 30.925-16.294 6.59-33.758 9.85-51.187 11.558-18.85 1.846-38.155 2.204-56.75-1.902-16.06-3.55-33.498-10.882-39.553-27.526-6.127-16.843.4-35.03 11.388-48.22 23.795-28.557 70.43-50.607 104.64-26.955.602.417 1.165-.564.572-.978z" fill="#6c5a2c" fill-rule="nonzero"/><g transform="matrix(1.85961 -.490392 .498281 1.83017 -864.874 -75.4714)" fill="#6c5a2c" fill-rule="nonzero"><path d="M502.435 206.026c.028.028.046.102.046.223a.79.79 0 0 1-.046.297l.065.185c.093.362.195.65.287.88l.362.992c.27.816.547 1.512.844 2.086.287.575.556.983.798 1.224.148.14.24.24.278.306.037.056.056.12.056.195 0 .13-.037.24-.13.334s-.195.14-.325.14c-.38 0-.853-.612-1.4-1.827-.223-.482-.352-.714-.4-.714-.14 0-.454.037-.937.13-.473.083-.91.185-1.308.306l-.427.102c-.083 0-.158-.037-.24-.11-.01-.01-.028-.02-.056-.02-.065 0-.204.195-.427.593l-.686 1.16c-.093.12-.204.185-.315.185-.083 0-.176-.046-.297-.14-.11-.102-.167-.195-.167-.297 0-.093.056-.223.158-.39l.668-.992a26 26 0 0 0 1.512-2.495l1.233-2.18c.176-.223.315-.334.408-.334.195 0 .352.056.445.158zm.278 3.598a16.29 16.29 0 0 1-.464-1.326l-.427-1.243-.77 1.484-.825 1.558c.065-.046.232-.093.5-.12.204-.02.39-.046.538-.083l1.437-.27z"/><use xlink:href="#B"/><path d="M513.566 210.588l.408-.714 1.14-1.864c.167-.195.334-.297.5-.297.1 0 .204.056.27.148a.4.4 0 0 1 .102.24c0 .074-.037.148-.102.232-.24.297-.62.862-1.16 1.697-.53.835-.807 1.345-.835 1.53.287 1.326.5 2.124.686 2.4.167.278.315.427.454.427a.63.63 0 0 0 .213-.037c.056-.02.093-.028.1-.028.213 0 .325.1.325.334a.41.41 0 0 1-.176.343c-.12.093-.287.14-.5.14-.287 0-.547-.12-.78-.362s-.464-.825-.714-1.753l-.232-.798c-.102.148-.315.538-.65 1.168l-.686 1.15c-.204.306-.362.5-.482.584s-.27.13-.445.13c-.093 0-.195-.028-.297-.083-.102-.046-.148-.1-.148-.167 0-.083.046-.167.14-.232a4.97 4.97 0 0 0 .668-.714c.204-.278.5-.77.918-1.474l.38-.63c.195-.343.297-.566.297-.668 0-.176-.1-.63-.343-1.354-.232-.733-.436-1.196-.62-1.4-.195-.204-.427-.306-.705-.306a.5.5 0 0 0-.213.037c-.055.027-.093.046-.12.046a.39.39 0 0 1-.26-.093c-.074-.056-.12-.14-.12-.26 0-.287.24-.427.705-.427.5 0 .927.167 1.243.5.315.334.566.9.77 1.688l.25.872zm5.43 1.03c.065-.065.148-.093.25-.093.12 0 .176.102.176.315 0 .185-.13.362-.38.53-.25.176-.566.26-.955.26-.4 0-.705-.14-.9-.427-.195-.297-.297-.77-.297-1.437s.083-1.372.26-2.124c.167-.742.4-1.113.686-1.113a.44.44 0 0 1 .25.093c.074.065.12.14.12.232 0 .102-.1.556-.325 1.382a6.4 6.4 0 0 0-.176 1.53c0 .733.195 1.104.584 1.104.223 0 .464-.083.714-.25zm.213-6.9c0 .074-.056.223-.167.436-.185.343-.306.612-.362.798a4.08 4.08 0 0 1-.232.695c-.102.232-.195.352-.278.352-.056 0-.13-.037-.213-.1s-.13-.12-.13-.158c0-.046.046-.213.13-.5a6.33 6.33 0 0 1 .325-.853l.213-.5c.083-.232.185-.343.334-.343a.61.61 0 0 1 .25.056c.093.037.14.074.14.12h-.01z"/><use xlink:href="#C"/><use xlink:href="#D"/><use xlink:href="#E"/><use xlink:href="#D" x="14.314"/><use xlink:href="#F"/><use xlink:href="#G"/><use xlink:href="#H"/><use xlink:href="#G" x="-46.242" y="9.482"/><use xlink:href="#H" x="12.144"/><path d="M523.953 215.554c-1.16.53-2.114 1.252-2.865 2.15-.75.9-1.122 1.716-1.122 2.4a.76.76 0 0 0 .334.658c.224.158.658.306 1.308.445.454.093.78.185.983.26.195.074.352.185.473.325a.79.79 0 0 1 .176.5c0 .464-.204.974-.603 1.512-.408.547-.76.816-1.066.816-.185 0-.278-.056-.278-.158 0-.065.046-.14.13-.232.686-.64 1.02-1.215 1.02-1.743 0-.158-.093-.278-.278-.352s-.445-.14-.78-.185c-.946-.148-1.558-.362-1.855-.658-.287-.297-.436-.677-.436-1.14 0-.705.297-1.456.88-2.235s1.4-1.512 2.44-2.2c-.668.01-1.178-.093-1.54-.297-.352-.213-.53-.417-.53-.603a.39.39 0 0 1 .139-.297c.093-.093.204-.14.315-.14a.32.32 0 0 1 .287.148c.343.427.825.65 1.456.65.5 0 1.02-.14 1.576-.4a.26.26 0 0 1 .14-.037c.158 0 .24.102.24.325 0 .24-.13.38-.4.427l-.148.037zm1.474 6.353c-.12 0-.223-.056-.297-.148-.074-.102-.1-.185-.1-.25 0-.13.046-.436.14-.937.185-.918.27-1.64.27-2.16 0-.287-.065-.427-.204-.427-.176 0-.473.093-.88.278-.074.037-.12.056-.148.056-.12 0-.213-.037-.287-.12a.44.44 0 0 1-.102-.26c0-.195.24-.362.723-.5.482-.14.835-.204 1.048-.204.436 0 .65.278.65.844 0 .26-.037.593-.102.983-.02.093-.028.185-.037.26l-.046.278a1.42 1.42 0 0 0-.037.278c0 .037.01.056.028.056.028 0 .14-.148.325-.445a9.02 9.02 0 0 1 1.206-1.53c.464-.473.974-.714 1.55-.714a1.06 1.06 0 0 1 .705.27c.205.177.306.454.306.844 0 .176-.1.78-.334 1.8l-.315 1.706c-.046.4-.065.825-.065 1.3l.028.75c0 .074-.037.158-.1.232s-.158.12-.25.12a.42.42 0 0 1-.408-.287c-.083-.185-.12-.5-.12-.927 0-.566.083-1.252.27-2.05.315-1.27.473-2.114.473-2.54 0-.297-.102-.454-.306-.454-.445 0-.946.343-1.52 1.02-.566.686-1.113 1.54-1.632 2.56-.12.213-.25.325-.4.325zm3.56-7.632c0 .083-.056.232-.176.445-.176.343-.297.612-.352.798a4.37 4.37 0 0 1-.232.695c-.102.232-.195.352-.278.352-.056 0-.13-.037-.213-.1s-.13-.13-.13-.158c0-.046.046-.213.13-.5.083-.287.195-.575.325-.853l.213-.5c.074-.232.185-.352.334-.352a.53.53 0 0 1 .25.065c.093.037.14.074.14.1h-.01z"/><use xlink:href="#D" x="4.686" y="9.472"/><use xlink:href="#F" x="-9.64" y="9.482"/><use xlink:href="#C" x="23.58" y="9.483"/><use xlink:href="#F" x="3.26" y="9.482"/><use xlink:href="#E" x="-35.345" y="18.963"/><use xlink:href="#G" x="-51.637" y="18.963"/><path d="M508.743 231.656a1.29 1.29 0 0 1-1.029-.473c-.27-.315-.4-.705-.4-1.168 0-.78.26-1.54.788-2.3.52-.76 1.15-1.13 1.882-1.13a1.42 1.42 0 0 1 1.168.556 2 2 0 0 1 .454 1.326c0 .78-.315 1.512-.927 2.18-.62.668-1.27 1-1.938 1zm-.63-1.753c0 .297.065.547.195.742a.58.58 0 0 0 .51.287c.445 0 .9-.24 1.354-.733.445-.5.677-1.048.677-1.65 0-.37-.093-.668-.26-.9a.84.84 0 0 0-.705-.352c-.482 0-.9.297-1.252.9-.343.593-.52 1.16-.52 1.706zm3.283-6.102c0 .083-.056.232-.167.445-.185.343-.306.612-.352.798-.056.232-.14.454-.24.695-.102.232-.195.343-.27.343-.065 0-.14-.028-.223-.102s-.13-.13-.13-.158c0-.046.046-.213.13-.5.083-.278.195-.566.325-.844a4.99 4.99 0 0 0 .223-.51c.074-.223.185-.343.325-.343a.69.69 0 0 1 .26.056c.093.037.13.083.13.12h-.01zm3.722 3.376c-.547 0-.992.204-1.326.62s-.5.927-.5 1.53a1.79 1.79 0 0 0 .167.788c.1.232.26.436.445.593.185.167.53.408 1.03.723.5.325.76.677.76 1.066 0 .325-.14.677-.417 1.066-.27.4-.52.584-.742.584-.14 0-.213-.065-.213-.185 0-.074.037-.148.093-.223.315-.4.473-.75.473-1.076 0-.27-.26-.547-.78-.835-.65-.37-1.094-.742-1.326-1.13-.24-.4-.352-.835-.352-1.335a3.02 3.02 0 0 1 .76-2.03c.5-.603 1.14-.9 1.873-.9.408 0 .76.093 1.057.278s.445.37.445.53c0 .093-.046.167-.13.24s-.167.1-.24.1c-.028 0-.074-.028-.14-.065-.343-.232-.658-.352-.937-.352z"/><use xlink:href="#H" x="20.021" y="9.482"/><use xlink:href="#B" x="21.132" y="18.963"/><path d="M534.884 230.58c.065-.065.148-.093.25-.093.12 0 .176.102.176.315 0 .185-.13.362-.38.53-.25.176-.566.26-.955.26-.4 0-.705-.14-.9-.427-.195-.297-.297-.77-.297-1.437s.083-1.372.26-2.124c.167-.742.4-1.113.686-1.113a.44.44 0 0 1 .25.093c.074.065.12.14.12.232 0 .102-.1.556-.325 1.382a6.4 6.4 0 0 0-.176 1.53c0 .733.195 1.104.584 1.104.223 0 .464-.083.714-.25zm6.042-3.82c.01.02.065.065.158.14.083.074.13.148.13.232 0 .13-.093.26-.278.4-.037.028-.065.065-.074.093-.297 1.168-.788 2.133-1.465 2.884s-1.326 1.13-1.957 1.13c-.853 0-1.28-.62-1.28-1.864 0-.75.14-1.595.417-2.54.278-.955.593-1.614.964-1.994.195-.204.306-.38.343-.53.037-.185.102-.325.204-.427.093-.1.27-.223.5-.343.25-.12.5-.185.723-.185.427 0 .76.232 1.002.695s.417 1.113.53 1.938l.074.38zm-3.6.62c0 .056.037.083.102.083a.65.65 0 0 0 .167-.028c.046-.01.093-.02.13-.02.056 0 .14.028.24.074.093.056.204.083.325.083.204 0 .538-.074 1-.213.473-.148.733-.24.798-.306.065-.056.102-.14.102-.26 0-.325-.093-.807-.26-1.437-.176-.64-.417-.955-.705-.955-.14 0-.27.158-.4.473-.046.13-.13.213-.24.24-.167.046-.352.223-.556.53-.195.306-.362.658-.5 1.057l-.213.677zm-.26 1.085a7.62 7.62 0 0 0-.121 1.308c0 .78.185 1.168.547 1.168.343 0 .714-.176 1.094-.53.38-.343.714-.788.992-1.317.287-.53.427-.937.427-1.215 0-.056-.02-.083-.056-.083-.028 0-.083.02-.167.056-.733.306-1.632.52-2.717.612zm5.672 2.59a7.37 7.37 0 0 0-.185 1.53c0 .213.046.5.13.88a.83.83 0 0 1 .019.213c0 .083-.046.148-.148.195a.6.6 0 0 1-.269.065c-.102 0-.204-.102-.306-.306s-.158-.473-.158-.807c0-.566.1-1.363.334-2.4l.464-2.142a6.08 6.08 0 0 0 .065-.593c.01-.278.148-.417.408-.417.25 0 .38.14.38.417 0 .12-.065.445-.204.964-.148.603-.223 1.085-.223 1.447a.7.7 0 0 0 .139.436c.102.12.213.176.362.176a1.72 1.72 0 0 0 .593-.111 2.84 2.84 0 0 0 .621-.352 6.64 6.64 0 0 0 .593-.473 2.44 2.44 0 0 0 .408-.491 1.29 1.29 0 0 0 .176-.39c.02-.102.028-.325.028-.686 0-.315.01-.5.037-.584a.37.37 0 0 1 .139-.204.31.31 0 0 1 .213-.102c.325 0 .482.24.482.733 0 .102-.056.37-.176.798-.065.213-.093.38-.093.52 0 .352.065.64.204.862.14.213.325.315.566.315.27 0 .603-.056 1.002-.167l.14-.028c.046 0 .083.02.1.056.028.028.046.065.046.102 0 .158-.185.315-.566.482-.38.158-.714.24-.992.24-.25 0-.464-.065-.62-.195-.167-.12-.306-.343-.427-.658-.074-.195-.13-.287-.167-.287-.01 0-.046.037-.12.102-.862.825-1.64 1.243-2.337 1.243-.334 0-.556-.12-.668-.37zm7.725.602a1.29 1.29 0 0 1-1.029-.473c-.27-.315-.4-.705-.4-1.168 0-.78.26-1.54.788-2.3.52-.76 1.15-1.13 1.882-1.13a1.42 1.42 0 0 1 1.168.556 2 2 0 0 1 .454 1.326c0 .78-.315 1.512-.927 2.18-.62.668-1.27 1-1.938 1zm-.63-1.753c0 .297.065.547.195.742a.58.58 0 0 0 .51.287c.445 0 .9-.24 1.354-.733.445-.5.677-1.048.677-1.65 0-.37-.093-.668-.26-.9a.84.84 0 0 0-.705-.352c-.482 0-.9.297-1.252.9-.343.593-.52 1.16-.52 1.706zm5.262-.426c0-.185.028-.584.074-1.215.028-.37 0-.603-.074-.705s-.176-.148-.315-.148a1.14 1.14 0 0 0-.334.065 1.32 1.32 0 0 1-.241.065c-.102 0-.213-.037-.334-.13-.12-.083-.176-.176-.176-.278 0-.14.083-.25.26-.334s.53-.12 1.048-.12c.297 0 .547.093.733.287.185.185.278.427.278.723 0 .093-.01.204-.02.325l-.093 1.28c0 .937.297 1.4.9 1.4a1.67 1.67 0 0 0 1.437-.733c.352-.493.53-1.03.53-1.595 0-.213-.056-.417-.176-.62s-.25-.362-.408-.464c-.12-.093-.213-.167-.25-.232a.42.42 0 0 1-.065-.25.53.53 0 0 1 .148-.343.45.45 0 0 1 .37-.176c.27 0 .538.204.788.603a2.35 2.35 0 0 1 .389 1.308c0 .798-.297 1.55-.9 2.235-.584.686-1.27 1.03-2.06 1.03a1.36 1.36 0 0 1-1.113-.52c-.278-.352-.417-.835-.417-1.456zm2.995-5.694c0 .083-.056.232-.167.445-.185.343-.306.612-.352.798-.056.232-.14.454-.24.695-.102.232-.195.343-.27.343-.065 0-.14-.028-.223-.102s-.12-.13-.12-.158c0-.046.037-.213.12-.5.083-.278.195-.566.325-.844a4.99 4.99 0 0 0 .223-.51c.074-.223.185-.343.325-.343a.69.69 0 0 1 .26.056c.093.046.13.083.13.12h-.01z"/></g><defs ><path id="B" d="M507.266 212.703c-.204 0-.334-.01-.38-.02-.046-.02-.065.02-.065.102a4.08 4.08 0 0 0 .352 1.66c.056.13.083.232.083.297 0 .083-.046.148-.14.204-.102.056-.195.083-.287.083-.25 0-.454-.297-.593-.9-.148-.593-.213-1.233-.213-1.9 0-1.474.25-2.624.77-3.45.5-.825 1.178-1.243 1.975-1.243.5 0 .9.176 1.168.53s.417.78.417 1.29c0 .816-.297 1.576-.9 2.28-.603.714-1.326 1.066-2.19 1.066zm-.427-.974c0 .232.158.352.454.352.538 0 1.057-.26 1.55-.78.49-.5.733-1.168.733-1.947 0-.343-.074-.62-.24-.844a.79.79 0 0 0-.677-.325c-.297 0-.593.158-.88.473-.287.325-.52.798-.686 1.428-.167.62-.25 1.178-.25 1.64z"/><path id="C" d="M522.996 208.307c.49.083.872.278 1.15.593.27.315.408.714.408 1.206a2.46 2.46 0 0 1-.742 1.818c-.49.5-1.048.76-1.66.76-.603 0-1.085-.195-1.456-.584-.37-.38-.547-.853-.547-1.4 0-.927.325-1.688.983-2.263.658-.584 1.604-.872 2.838-.872.297 0 .64.028 1.02.102.39.065.62.13.714.185.093.065.14.14.14.223 0 .093-.028.185-.083.27-.065.083-.12.12-.185.12a1.02 1.02 0 0 1-.232-.037c-.575-.13-1.048-.195-1.4-.195-.297 0-.612.028-.937.074zm-2.06 2.235c0 .417.12.75.362 1.002.25.24.538.37.88.37.473 0 .853-.167 1.15-.49s.445-.733.445-1.224c0-.4-.11-.723-.325-.955-.223-.24-.53-.37-.937-.408-.11-.01-.213-.056-.287-.14-.01-.02-.037-.028-.074-.028-.185 0-.436.176-.75.5s-.464.788-.464 1.363z"/><path id="D" d="M529.27 208.428c-.352.927-.53 1.818-.53 2.652 0 .232.065.436.176.603.12.167.278.25.473.25.325 0 .64-.065.937-.195.083-.037.14-.046.176-.046.093 0 .14.046.14.13.037.176-.083.352-.362.5-.287.167-.612.25-.974.25-.937 0-1.4-.538-1.4-1.604 0-.436.148-1.168.454-2.18l.056-.25-1.54.167a1.26 1.26 0 0 1-.603-.148c-.185-.102-.278-.213-.278-.343 0-.093.02-.148.056-.167.046-.028.14-.046.287-.046l1.855-.083c.26-.056.408-.13.445-.223a.44.44 0 0 1 .334-.158c.065 0 .148.028.25.074.11.046.195.065.27.065.037 0 .26-.028.677-.083l.9-.093c.4 0 .603.12.603.37 0 .232-.11.343-.325.343a.15.15 0 0 1-.083-.028c-.037-.02-.11-.037-.223-.037-.195 0-.52.037-.974.102s-.714.12-.788.167z"/><path id="E" d="M536.155 211.785c-.046.204-.334.4-.853.612-.53.213-1.057.315-1.586.315-.547 0-.974-.12-1.28-.37-.306-.24-.464-.566-.464-.964 0-.807.52-1.335 1.55-1.595a.97.97 0 0 1-.491-.872c0-.4.176-.742.53-1.048.352-.297.76-.445 1.243-.445.38 0 .677.074.9.223.232.148.343.297.343.436a.31.31 0 0 1-.083.213c-.056.074-.13.102-.223.102-.083 0-.167-.037-.25-.11-.223-.185-.464-.278-.723-.278-.297 0-.53.093-.705.278a.98.98 0 0 0-.269.705.51.51 0 0 0 .167.399c.11.093.24.14.4.14.13 0 .315-.02.575-.056a.83.83 0 0 1 .371.028c.12.046.176.13.176.27 0 .213-.223.334-.677.352-.5.028-.872.083-1.13.148-.26.074-.473.195-.64.37-.167.167-.24.37-.24.584 0 .566.37.844 1.113.844.482 0 1.104-.14 1.855-.408.102-.037.167-.056.204-.056.065 0 .11.028.14.083.037.056.056.083.056.102z"/><path id="F" d="M547.64 212.425c-.12 0-.223-.056-.297-.148-.074-.102-.11-.185-.11-.25 0-.13.046-.436.14-.937.185-.918.27-1.64.27-2.16 0-.287-.065-.427-.204-.427-.176 0-.473.093-.88.278-.074.037-.12.056-.148.056-.12 0-.213-.037-.287-.12a.44.44 0 0 1-.102-.26c0-.195.24-.362.723-.49.482-.14.835-.204 1.048-.204.436 0 .65.278.65.844 0 .26-.037.593-.102.983-.02.093-.028.185-.037.26l-.046.278a1.42 1.42 0 0 0-.037.278c0 .037.01.056.028.056.028 0 .14-.148.325-.445a9.02 9.02 0 0 1 1.206-1.53c.464-.473.974-.714 1.55-.714.26 0 .5.093.705.27s.306.454.306.844c0 .176-.11.78-.334 1.8l-.315 1.706c-.046.39-.065.825-.065 1.29l.028.75c0 .074-.037.158-.11.232s-.158.12-.25.12a.42.42 0 0 1-.408-.287c-.083-.185-.12-.49-.12-.927 0-.566.083-1.252.27-2.05.315-1.27.473-2.114.473-2.54 0-.297-.102-.454-.306-.454-.445 0-.946.343-1.52 1.02-.566.686-1.113 1.54-1.632 2.56-.12.213-.25.325-.4.325z"/><path id="G" d="M555.445 211.683c.14-.037.52-.436 1.122-1.206.603-.78.9-1.576.9-2.41 0-.37.167-.556.49-.556.278 0 .408.213.408.63 0 .49-.167 1.04-.5 1.632-.343.584-.733 1.122-1.178 1.586-.584.612-.927 1.02-1.04 1.224-.02.046-.074.083-.176.13-.093.046-.167.065-.213.065-.11 0-.223-.056-.325-.167-.093-.028-.195-.27-.297-.733-.158-.9-.362-1.67-.603-2.31-.232-.64-.445-1.04-.62-1.196-.158-.13-.232-.24-.232-.334 0-.11.056-.232.158-.352a.5.5 0 0 1 .389-.195c.213 0 .37.11.482.325a9.07 9.07 0 0 1 .389.909c.148.4.362 1.15.64 2.272l.11.39.102.297z"/><path id="H" d="M504.293 220.228c-1.02 1.298-1.873 1.947-2.57 1.947-.325 0-.584-.158-.78-.473-.185-.315-.278-.733-.278-1.26 0-.862.213-1.632.64-2.328.417-.695.946-1.04 1.576-1.04a1.3 1.3 0 0 1 .862.315c.24.213.5.658.78 1.335l.946-1.604c.24-.445.464-.677.677-.677.25 0 .38.14.38.417 0 .158-.14.417-.4.807l-.91 1.308c-.213.306-.325.5-.325.566 0 .13.158.5.482 1.14.315.64.62 1.122.918 1.447.065.074.093.148.093.204 0 .046-.02.083-.074.13-.046.037-.102.056-.158.056-.287 0-.593-.195-.918-.566-.315-.38-.63-.955-.946-1.725zm-2.828.11c0 .306.037.547.12.723s.204.26.343.26c.343 0 .76-.27 1.252-.816s.742-.91.742-1.076c0-.204-.11-.53-.343-.955s-.482-.64-.76-.64c-.37 0-.695.27-.955.816a3.76 3.76 0 0 0-.399 1.688z"/></defs></svg>